<?xml version="1.0" encoding="iso-8859-1"?>
<!-- Uploaded to: SVG Repo, www.svgrepo.com, Generator: SVG Repo Mixer Tools -->
<svg version="1.1" id="Layer_1" xmlns="http://www.w3.org/2000/svg" xmlns:xlink="http://www.w3.org/1999/xlink" 
	 viewBox="0 0 512 512" xml:space="preserve">
<g>
	<path style="fill:#FFC552;" d="M384,51.2H128l20.883-41.765C151.773,3.652,157.683,0,164.148,0h183.705
		c6.464,0,12.374,3.652,15.265,9.435L384,51.2z"/>
	<rect x="128" y="51.2" style="fill:#FFC552;" width="51.2" height="119.467"/>
</g>
<rect x="128" y="51.2" style="fill:#FC9C47;" width="51.2" height="34.133"/>
<rect x="332.8" y="51.2" style="fill:#FFC552;" width="51.2" height="119.467"/>
<rect x="332.8" y="51.2" style="fill:#FC9C47;" width="51.2" height="34.133"/>
<path style="fill:#DDDAC5;" d="M502.417,512H9.582c-5.103,0-9.066-4.45-8.476-9.519l40.683-349.867
	c0.5-4.303,4.145-7.548,8.476-7.548h411.47c4.332,0,7.975,3.245,8.476,7.548l40.683,349.867C511.482,507.55,507.52,512,502.417,512z
	"/>
<path style="fill:#D1CDB2;" d="M508.031,477.867H53.298c-5.103,0-9.066-4.45-8.477-9.519l37.591-323.281H50.265
	c-4.332,0-7.975,3.245-8.476,7.548L1.107,502.481C0.517,507.55,4.48,512,9.582,512h492.834c5.103,0,9.066-4.45,8.477-9.519
	L508.031,477.867z"/>
<path style="fill:#66BF00;" d="M292.567,227.999c-33.071-0.713-61.213,24.972-62.144,58.037
	c-0.959,34.059,27.403,52.385,59.71,61.404c16.048,4.48,42.667,17.298,42.667,42.667c0,16.338-10.011,28.923-22.365,38.233
	c-7.516,5.664-1.735,17.514,7.353,15.066c56.901-15.326,83.279-56.326,83.279-104.498
	C401.066,278.453,352.71,229.294,292.567,227.999z"/>
<g>
	<path style="fill:#58AB23;" d="M332.8,390.107c0,7.475-2.112,14.155-5.568,20.103c8.258-8.311,14.101-18.59,14.101-31.065
		c0-25.369-26.619-38.187-42.667-42.667c-32.307-9.018-60.669-27.344-59.71-61.404c0.298-10.561,3.38-20.362,8.503-28.798
		c-10.148,10.306-16.599,24.215-17.037,39.758c-0.959,34.059,27.403,52.385,59.71,61.404
		C306.181,351.92,332.8,364.738,332.8,390.107z"/>
	<path style="fill:#58AB23;" d="M374.993,345.223c-18.982-54.421-65.182-93.89-120.138-105.319
		c-5.599,4.109-10.47,9.141-14.359,14.89c53.894,6.976,100.158,43.806,118.382,96.05c1.228,3.52,4.528,5.725,8.058,5.725
		c0.932,0,1.881-0.154,2.811-0.478C374.196,354.539,376.545,349.674,374.993,345.223z"/>
</g>
<path style="fill:#66BF00;" d="M219.432,443.718c33.071,0.713,61.213-24.972,62.144-58.037c0.959-34.059-27.403-52.385-59.71-61.404
	c-16.048-4.48-42.667-17.298-42.667-42.667c0-16.338,10.011-28.923,22.365-38.233c7.516-5.664,1.735-17.514-7.353-15.066
	c-56.901,15.327-83.279,56.327-83.279,104.499C110.933,393.265,159.289,442.423,219.432,443.718z"/>
<g>
	<path style="fill:#58AB23;" d="M198.031,246.208c1.154-0.972,2.327-1.921,3.534-2.829c1.488-1.121,2.447-2.486,2.971-3.934
		C202.197,241.559,200.007,243.81,198.031,246.208z"/>
	<path style="fill:#58AB23;" d="M227.965,435.185c-60.143-1.295-108.499-50.453-108.499-110.907c0-26.679,8.108-51.15,24.995-70.287
		c-22.701,20.106-33.529,47.987-33.529,78.82c0,60.453,48.356,109.612,108.499,110.907c19.535,0.421,37.345-8.372,48.848-22.453
		C257.323,430.25,243.17,435.513,227.965,435.185z"/>
	<path style="fill:#58AB23;" d="M137.007,326.495c18.982,54.421,65.182,93.89,120.138,105.319c5.599-4.109,10.47-9.141,14.359-14.89
		c-53.894-6.976-100.158-43.806-118.382-96.05c-1.228-3.52-4.528-5.725-8.058-5.725c-0.932,0-1.881,0.154-2.811,0.478
		C137.803,317.18,135.454,322.045,137.007,326.495z"/>
</g>
</svg>